<svg width="208" height="31" viewBox="0 0 208 31" fill="none" xmlns="http://www.w3.org/2000/svg">
<path d="M0.0800003 30V2.08H19.08V7.48H6.16V13.2H17.24V18.56H6.16V24.6H19.08V30H0.0800003ZM29.9369 30C27.9102 30 26.4169 29.5067 25.4569 28.52C24.5235 27.5333 24.0569 26.1067 24.0569 24.24V0.4H29.9769V25.4H32.6169V30H29.9369ZM39.1263 6.76C37.9263 6.76 37.0463 6.49333 36.4863 5.96C35.9529 5.4 35.6863 4.69333 35.6863 3.84V2.96C35.6863 2.10667 35.9529 1.41333 36.4863 0.879998C37.0463 0.319999 37.9263 0.0399995 39.1263 0.0399995C40.3263 0.0399995 41.1929 0.319999 41.7263 0.879998C42.2863 1.41333 42.5663 2.10667 42.5663 2.96V3.84C42.5663 4.69333 42.2863 5.4 41.7263 5.96C41.1929 6.49333 40.3263 6.76 39.1263 6.76ZM36.1663 9H42.0863V30H36.1663V9ZM54.7316 30.48C52.7049 30.48 50.9982 30.16 49.6116 29.52C48.2249 28.8533 46.9849 27.92 45.8916 26.72L49.3716 23.2C50.1182 24.0267 50.9449 24.68 51.8516 25.16C52.7582 25.64 53.7849 25.88 54.9316 25.88C56.1049 25.88 56.9182 25.7067 57.3716 25.36C57.8249 24.9867 58.0516 24.4933 58.0516 23.88C58.0516 22.8933 57.3449 22.3067 55.9316 22.12L53.6516 21.84C48.9316 21.2533 46.5716 19.0933 46.5716 15.36C46.5716 14.3467 46.7582 13.4267 47.1316 12.6C47.5316 11.7467 48.0782 11.0267 48.7716 10.44C49.4916 9.82667 50.3449 9.36 51.3316 9.04C52.3449 8.69333 53.4782 8.52 54.7316 8.52C55.8249 8.52 56.7849 8.6 57.6116 8.76C58.4649 8.89333 59.2116 9.10667 59.8516 9.4C60.5182 9.66667 61.1182 10.0133 61.6516 10.44C62.2116 10.84 62.7582 11.2933 63.2916 11.8L59.8916 15.28C59.2249 14.6133 58.4649 14.0933 57.6116 13.72C56.7849 13.32 55.9316 13.12 55.0516 13.12C54.0382 13.12 53.3182 13.28 52.8916 13.6C52.4649 13.92 52.2516 14.3467 52.2516 14.88C52.2516 15.44 52.3982 15.88 52.6916 16.2C53.0116 16.4933 53.5982 16.7067 54.4516 16.84L56.8116 17.16C61.4249 17.7733 63.7316 19.88 63.7316 23.48C63.7316 24.4933 63.5182 25.4267 63.0916 26.28C62.6649 27.1333 62.0516 27.88 61.2516 28.52C60.4782 29.1333 59.5316 29.6133 58.4116 29.96C57.3182 30.3067 56.0916 30.48 54.7316 30.48ZM76.5278 30.48C74.9278 30.48 73.5011 30.2267 72.2478 29.72C70.9945 29.1867 69.9278 28.4533 69.0478 27.52C68.1945 26.56 67.5411 25.4 67.0878 24.04C66.6611 22.68 66.4478 21.16 66.4478 19.48C66.4478 17.8267 66.6611 16.3333 67.0878 15C67.5145 13.64 68.1411 12.48 68.9678 11.52C69.8211 10.56 70.8611 9.82667 72.0878 9.32C73.3145 8.78667 74.7145 8.52 76.2878 8.52C78.0211 8.52 79.5011 8.81333 80.7278 9.4C81.9811 9.98667 82.9945 10.7733 83.7678 11.76C84.5678 12.7467 85.1411 13.8933 85.4878 15.2C85.8611 16.48 86.0478 17.8267 86.0478 19.24V21H72.5678V21.32C72.5678 22.7067 72.9411 23.8133 73.6878 24.64C74.4345 25.44 75.6078 25.84 77.2078 25.84C78.4345 25.84 79.4345 25.6 80.2078 25.12C80.9811 24.6133 81.7011 24.0133 82.3678 23.32L85.3278 27C84.3945 28.0933 83.1678 28.9467 81.6478 29.56C80.1545 30.1733 78.4478 30.48 76.5278 30.48ZM76.4078 12.88C75.2078 12.88 74.2611 13.28 73.5678 14.08C72.9011 14.8533 72.5678 15.8933 72.5678 17.2V17.52H79.9278V17.16C79.9278 15.88 79.6345 14.8533 79.0478 14.08C78.4878 13.28 77.6078 12.88 76.4078 12.88Z" fill="white"/>
<path d="M100.002 2.08H113.562C115.882 2.08 117.682 2.73333 118.962 4.04C120.269 5.34667 120.922 7.08 120.922 9.24C120.922 10.3067 120.775 11.2133 120.482 11.96C120.215 12.7067 119.842 13.32 119.362 13.8C118.909 14.28 118.362 14.64 117.722 14.88C117.109 15.0933 116.442 15.2133 115.722 15.24V15.48C116.389 15.48 117.082 15.6 117.802 15.84C118.549 16.08 119.229 16.4667 119.842 17C120.455 17.5067 120.962 18.1733 121.362 19C121.789 19.8267 122.002 20.84 122.002 22.04C122.002 23.1333 121.815 24.1733 121.442 25.16C121.095 26.12 120.602 26.96 119.962 27.68C119.322 28.4 118.562 28.9733 117.682 29.4C116.802 29.8 115.842 30 114.802 30H100.002V2.08ZM106.082 24.88H113.082C113.882 24.88 114.509 24.6667 114.962 24.24C115.442 23.7867 115.682 23.16 115.682 22.36V21C115.682 20.2 115.442 19.5867 114.962 19.16C114.509 18.7067 113.882 18.48 113.082 18.48H106.082V24.88ZM106.082 13.52H112.122C112.922 13.52 113.549 13.2933 114.002 12.84C114.455 12.3867 114.682 11.76 114.682 10.96V9.76C114.682 8.96 114.455 8.33333 114.002 7.88C113.549 7.42666 112.922 7.2 112.122 7.2H106.082V13.52ZM134.882 30.48C133.335 30.48 131.948 30.2267 130.722 29.72C129.522 29.2133 128.495 28.48 127.642 27.52C126.815 26.56 126.175 25.4 125.722 24.04C125.268 22.68 125.042 21.16 125.042 19.48C125.042 17.8 125.268 16.28 125.722 14.92C126.175 13.56 126.815 12.4133 127.642 11.48C128.495 10.52 129.522 9.78667 130.722 9.28C131.948 8.77333 133.335 8.52 134.882 8.52C136.428 8.52 137.802 8.77333 139.002 9.28C140.228 9.78667 141.255 10.52 142.082 11.48C142.935 12.4133 143.588 13.56 144.042 14.92C144.495 16.28 144.722 17.8 144.722 19.48C144.722 21.16 144.495 22.68 144.042 24.04C143.588 25.4 142.935 26.56 142.082 27.52C141.255 28.48 140.228 29.2133 139.002 29.72C137.802 30.2267 136.428 30.48 134.882 30.48ZM134.882 25.8C136.055 25.8 136.962 25.44 137.602 24.72C138.242 24 138.562 22.9733 138.562 21.64V17.36C138.562 16.0267 138.242 15 137.602 14.28C136.962 13.56 136.055 13.2 134.882 13.2C133.708 13.2 132.802 13.56 132.162 14.28C131.522 15 131.202 16.0267 131.202 17.36V21.64C131.202 22.9733 131.522 24 132.162 24.72C132.802 25.44 133.708 25.8 134.882 25.8ZM161.34 26.48H161.14C160.953 27.0133 160.7 27.52 160.38 28C160.086 28.48 159.7 28.9067 159.22 29.28C158.74 29.6533 158.166 29.9467 157.5 30.16C156.86 30.3733 156.113 30.48 155.26 30.48C153.1 30.48 151.46 29.7733 150.34 28.36C149.246 26.92 148.7 24.8667 148.7 22.2V9H154.62V21.68C154.62 22.96 154.846 23.9467 155.3 24.64C155.753 25.3333 156.526 25.68 157.62 25.68C158.073 25.68 158.526 25.6133 158.98 25.48C159.433 25.3467 159.833 25.16 160.18 24.92C160.526 24.6533 160.806 24.3333 161.02 23.96C161.233 23.5867 161.34 23.1467 161.34 22.64V9H167.26V30H161.34V26.48ZM181.528 30.48C179.928 30.48 178.501 30.2267 177.248 29.72C175.994 29.1867 174.928 28.4533 174.048 27.52C173.194 26.56 172.541 25.4 172.088 24.04C171.661 22.68 171.448 21.16 171.448 19.48C171.448 17.8267 171.661 16.3333 172.088 15C172.514 13.64 173.141 12.48 173.968 11.52C174.821 10.56 175.861 9.82667 177.088 9.32C178.314 8.78667 179.714 8.52 181.288 8.52C183.021 8.52 184.501 8.81333 185.728 9.4C186.981 9.98667 187.994 10.7733 188.768 11.76C189.568 12.7467 190.141 13.8933 190.488 15.2C190.861 16.48 191.048 17.8267 191.048 19.24V21H177.568V21.32C177.568 22.7067 177.941 23.8133 178.688 24.64C179.434 25.44 180.608 25.84 182.208 25.84C183.434 25.84 184.434 25.6 185.208 25.12C185.981 24.6133 186.701 24.0133 187.368 23.32L190.328 27C189.394 28.0933 188.168 28.9467 186.648 29.56C185.154 30.1733 183.448 30.48 181.528 30.48ZM181.408 12.88C180.208 12.88 179.261 13.28 178.568 14.08C177.901 14.8533 177.568 15.8933 177.568 17.2V17.52H184.928V17.16C184.928 15.88 184.634 14.8533 184.048 14.08C183.488 13.28 182.608 12.88 181.408 12.88ZM195.229 30V9H201.149V13.56H201.349C201.455 12.9733 201.642 12.4133 201.909 11.88C202.175 11.32 202.522 10.8267 202.949 10.4C203.402 9.97333 203.935 9.64 204.549 9.4C205.162 9.13333 205.882 9 206.709 9H207.749V14.52H206.269C204.535 14.52 203.242 14.7467 202.389 15.2C201.562 15.6533 201.149 16.4933 201.149 17.72V30H195.229Z" fill="#3E96F7"/>
</svg>
